<?xml version="1.0" encoding="iso-8859-1"?>
<!-- Generator: Adobe Illustrator 16.0.0, SVG Export Plug-In . SVG Version: 6.00 Build 0)  -->
<!DOCTYPE svg PUBLIC "-//W3C//DTD SVG 1.1//EN" "http://www.w3.org/Graphics/SVG/1.1/DTD/svg11.dtd">
<svg version="1.1" id="Capa_1" xmlns="http://www.w3.org/2000/svg" xmlns:xlink="http://www.w3.org/1999/xlink" x="0px" y="0px"
	 width="33.375px" height="33.375px" viewBox="0 0 33.375 33.375" style="enable-background:new 0 0 33.375 33.375;"
	 xml:space="preserve">
<g>
	<g>
		<path d="M11.977,22.088c0.487-0.46,1.077-1.029,1.77-1.71c0.44-0.413,0.803-0.787,1.09-1.12s0.517-0.67,0.69-1.011
			c0.173-0.341,0.293-0.703,0.36-1.091c0.066-0.386,0.1-0.846,0.1-1.379c0-0.56-0.067-1.08-0.2-1.56
			c-0.133-0.48-0.367-0.896-0.7-1.25c-0.333-0.354-0.783-0.634-1.35-0.84c-0.567-0.207-1.277-0.311-2.13-0.311
			c-3.04,0-4.56,1.42-4.56,4.26v0.46h3.12c0-0.267,0.007-0.553,0.02-0.859c0.013-0.306,0.06-0.59,0.14-0.851
			c0.08-0.26,0.207-0.473,0.38-0.64s0.42-0.25,0.74-0.25c0.48,0,0.796,0.17,0.95,0.51c0.154,0.34,0.23,0.79,0.23,1.351
			c0,0.267-0.013,0.513-0.04,0.739c-0.027,0.228-0.12,0.478-0.28,0.75c-0.16,0.272-0.407,0.594-0.74,0.96
			c-0.333,0.367-0.8,0.816-1.4,1.352c-0.307,0.266-0.644,0.594-1.01,0.979c-0.367,0.388-0.713,0.841-1.04,1.359
			c-0.327,0.521-0.6,1.113-0.82,1.78c-0.22,0.667-0.33,1.421-0.33,2.261h9.04v-2.601h-5.02C11.16,22.979,11.49,22.548,11.977,22.088
			z"/>
		<path d="M25.328,12.098h-3.601l-4.6,8.541v2.6h5.08v2.74h3.121v-2.74h1.319v-2.6h-1.319V12.098z M22.207,20.639h-2.42l2.381-4.741
			h0.039V20.639z"/>
		<path d="M27.96,31.375H5.414c-1.945,0-3.665-0.979-4.7-2.464c0.14,2.481,2.184,4.464,4.7,4.464H27.96
			c2.518,0,4.562-1.98,4.701-4.464C31.625,30.396,29.906,31.375,27.96,31.375z"/>
		<path d="M27.96,1.375h-0.682V1c0-0.552-0.447-1-1-1c-0.552,0-1,0.448-1,1v0.375h-1.837V1c0-0.552-0.448-1-1-1s-1,0.448-1,1v0.375
			h-1.837V1c0-0.552-0.447-1-1-1c-0.552,0-1,0.448-1,1v0.375h-1.837V1c0-0.552-0.448-1-1-1c-0.552,0-1,0.448-1,1v0.375h-1.837V1
			c0-0.552-0.448-1-1-1c-0.552,0-1,0.448-1,1v0.375H8.094V1c0-0.552-0.448-1-1-1c-0.552,0-1,0.448-1,1v0.375H5.412
			c-2.605,0-4.725,2.12-4.725,4.726v19.547c0,2.605,2.12,4.727,4.727,4.727H27.96c2.606,0,4.728-2.12,4.728-4.727V6.101
			C32.687,3.495,30.567,1.375,27.96,1.375z M25.78,1c0-0.276,0.224-0.5,0.5-0.5s0.5,0.224,0.5,0.5v6.482c0,0.276-0.224,0.5-0.5,0.5
			s-0.5-0.224-0.5-0.5V1z M21.943,1c0-0.276,0.225-0.5,0.5-0.5c0.276,0,0.5,0.224,0.5,0.5v6.482c0,0.276-0.224,0.5-0.5,0.5
			c-0.275,0-0.5-0.224-0.5-0.5V1z M18.106,1c0-0.276,0.224-0.5,0.5-0.5s0.5,0.224,0.5,0.5v6.482c0,0.276-0.224,0.5-0.5,0.5
			s-0.5-0.224-0.5-0.5V1z M14.269,1c0-0.276,0.224-0.5,0.5-0.5s0.5,0.224,0.5,0.5v6.482c0,0.276-0.224,0.5-0.5,0.5
			s-0.5-0.224-0.5-0.5V1z M10.432,1c0-0.276,0.224-0.5,0.5-0.5s0.5,0.224,0.5,0.5v6.482c0,0.276-0.224,0.5-0.5,0.5
			s-0.5-0.224-0.5-0.5V1z M6.595,1c0-0.276,0.224-0.5,0.5-0.5c0.276,0,0.5,0.224,0.5,0.5v6.482c0,0.276-0.224,0.5-0.5,0.5
			c-0.276,0-0.5-0.224-0.5-0.5V1z M30.279,25.648c0,1.277-1.04,2.317-2.318,2.317H5.414c-1.278,0-2.318-1.04-2.318-2.317V6.101
			c0-1.278,1.04-2.318,2.318-2.318h0.682v2.513c-0.339,0.286-0.56,0.709-0.56,1.187c0,0.86,0.699,1.56,1.56,1.56
			c0.861,0,1.56-0.699,1.56-1.56c0-0.478-0.221-0.9-0.56-1.187V3.783h1.837v2.513c-0.339,0.286-0.56,0.709-0.56,1.187
			c0,0.86,0.699,1.56,1.56,1.56c0.861,0,1.56-0.699,1.56-1.56c0-0.478-0.221-0.9-0.56-1.187V3.783h1.837v2.513
			c-0.339,0.286-0.56,0.709-0.56,1.187c0,0.86,0.699,1.56,1.56,1.56s1.56-0.699,1.56-1.56c0-0.478-0.221-0.9-0.56-1.187V3.783h1.837
			v2.513c-0.339,0.286-0.56,0.709-0.56,1.187c0,0.86,0.699,1.56,1.56,1.56s1.561-0.699,1.561-1.56c0-0.478-0.222-0.9-0.561-1.187
			V3.783h1.837v2.513c-0.339,0.286-0.56,0.709-0.56,1.187c0,0.86,0.699,1.56,1.56,1.56c0.861,0,1.56-0.699,1.56-1.56
			c0-0.478-0.221-0.9-0.56-1.187V3.783h1.837v2.513c-0.339,0.286-0.56,0.709-0.56,1.187c0,0.86,0.698,1.56,1.56,1.56
			s1.561-0.699,1.561-1.56c0-0.478-0.221-0.9-0.561-1.187V3.783h0.682c1.277,0,2.317,1.04,2.317,2.318L30.279,25.648L30.279,25.648z
			"/>
	</g>
</g>
<g>
</g>
<g>
</g>
<g>
</g>
<g>
</g>
<g>
</g>
<g>
</g>
<g>
</g>
<g>
</g>
<g>
</g>
<g>
</g>
<g>
</g>
<g>
</g>
<g>
</g>
<g>
</g>
<g>
</g>
</svg>
